<?xml version="1.0" encoding="utf-8" standalone="no"?>
<!DOCTYPE svg PUBLIC "-//W3C//DTD SVG 1.1//EN"
  "http://www.w3.org/Graphics/SVG/1.1/DTD/svg11.dtd">
<svg xmlns:xlink="http://www.w3.org/1999/xlink" width="460.8pt" height="345.6pt" viewBox="0 0 460.8 345.6" xmlns="http://www.w3.org/2000/svg" version="1.1">
 <metadata>
  <rdf:RDF xmlns:dc="http://purl.org/dc/elements/1.1/" xmlns:cc="http://creativecommons.org/ns#" xmlns:rdf="http://www.w3.org/1999/02/22-rdf-syntax-ns#">
   <cc:Work>
    <dc:type rdf:resource="http://purl.org/dc/dcmitype/StillImage"/>
    <dc:date>2024-10-12T13:43:26.442021</dc:date>
    <dc:format>image/svg+xml</dc:format>
    <dc:creator>
     <cc:Agent>
      <dc:title>Matplotlib v3.9.2, https://matplotlib.org/</dc:title>
     </cc:Agent>
    </dc:creator>
   </cc:Work>
  </rdf:RDF>
 </metadata>
 <defs>
  <style type="text/css">*{stroke-linejoin: round; stroke-linecap: butt}</style>
 </defs>
 <g id="figure_1">
  <g id="patch_1">
   <path d="M 0 345.6 
L 460.8 345.6 
L 460.8 0 
L 0 0 
z
" style="fill: #ffffff"/>
  </g>
  <g id="axes_1">
   <g id="patch_2">
    <path d="M 57.6 307.584 
L 414.72 307.584 
L 414.72 41.472 
L 57.6 41.472 
z
" style="fill: #ffffff"/>
   </g>
   <g id="matplotlib.axis_1">
    <g id="xtick_1">
     <g id="line2d_1">
      <path d="M 90.529268 307.584 
L 90.529268 41.472 
" clip-path="url(#p43ea3db623)" style="fill: none; stroke: #b0b0b0; stroke-width: 0.8; stroke-linecap: square"/>
     </g>
     <g id="line2d_2">
      <defs>
       <path id="m00000bad64" d="M 0 0 
L 0 3.5 
" style="stroke: #000000; stroke-width: 0.8"/>
      </defs>
      <g>
       <use xlink:href="#m00000bad64" x="90.529268" y="307.584" style="stroke: #000000; stroke-width: 0.8"/>
      </g>
     </g>
     <g id="text_1">
      <!-- 1.675 -->
      <g transform="translate(76.215206 322.182437) scale(0.1 -0.1)">
       <defs>
        <path id="DejaVuSans-31" d="M 794 531 
L 1825 531 
L 1825 4091 
L 703 3866 
L 703 4441 
L 1819 4666 
L 2450 4666 
L 2450 531 
L 3481 531 
L 3481 0 
L 794 0 
L 794 531 
z
" transform="scale(0.015625)"/>
        <path id="DejaVuSans-2e" d="M 684 794 
L 1344 794 
L 1344 0 
L 684 0 
L 684 794 
z
" transform="scale(0.015625)"/>
        <path id="DejaVuSans-36" d="M 2113 2584 
Q 1688 2584 1439 2293 
Q 1191 2003 1191 1497 
Q 1191 994 1439 701 
Q 1688 409 2113 409 
Q 2538 409 2786 701 
Q 3034 994 3034 1497 
Q 3034 2003 2786 2293 
Q 2538 2584 2113 2584 
z
M 3366 4563 
L 3366 3988 
Q 3128 4100 2886 4159 
Q 2644 4219 2406 4219 
Q 1781 4219 1451 3797 
Q 1122 3375 1075 2522 
Q 1259 2794 1537 2939 
Q 1816 3084 2150 3084 
Q 2853 3084 3261 2657 
Q 3669 2231 3669 1497 
Q 3669 778 3244 343 
Q 2819 -91 2113 -91 
Q 1303 -91 875 529 
Q 447 1150 447 2328 
Q 447 3434 972 4092 
Q 1497 4750 2381 4750 
Q 2619 4750 2861 4703 
Q 3103 4656 3366 4563 
z
" transform="scale(0.015625)"/>
        <path id="DejaVuSans-37" d="M 525 4666 
L 3525 4666 
L 3525 4397 
L 1831 0 
L 1172 0 
L 2766 4134 
L 525 4134 
L 525 4666 
z
" transform="scale(0.015625)"/>
        <path id="DejaVuSans-35" d="M 691 4666 
L 3169 4666 
L 3169 4134 
L 1269 4134 
L 1269 2991 
Q 1406 3038 1543 3061 
Q 1681 3084 1819 3084 
Q 2600 3084 3056 2656 
Q 3513 2228 3513 1497 
Q 3513 744 3044 326 
Q 2575 -91 1722 -91 
Q 1428 -91 1123 -41 
Q 819 9 494 109 
L 494 744 
Q 775 591 1075 516 
Q 1375 441 1709 441 
Q 2250 441 2565 725 
Q 2881 1009 2881 1497 
Q 2881 1984 2565 2268 
Q 2250 2553 1709 2553 
Q 1456 2553 1204 2497 
Q 953 2441 691 2322 
L 691 4666 
z
" transform="scale(0.015625)"/>
       </defs>
       <use xlink:href="#DejaVuSans-31"/>
       <use xlink:href="#DejaVuSans-2e" x="63.623047"/>
       <use xlink:href="#DejaVuSans-36" x="95.410156"/>
       <use xlink:href="#DejaVuSans-37" x="159.033203"/>
       <use xlink:href="#DejaVuSans-35" x="222.65625"/>
      </g>
     </g>
    </g>
    <g id="xtick_2">
     <g id="line2d_3">
      <path d="M 137.973407 307.584 
L 137.973407 41.472 
" clip-path="url(#p43ea3db623)" style="fill: none; stroke: #b0b0b0; stroke-width: 0.8; stroke-linecap: square"/>
     </g>
     <g id="line2d_4">
      <g>
       <use xlink:href="#m00000bad64" x="137.973407" y="307.584" style="stroke: #000000; stroke-width: 0.8"/>
      </g>
     </g>
     <g id="text_2">
      <!-- 1.680 -->
      <g transform="translate(123.659344 322.182437) scale(0.1 -0.1)">
       <defs>
        <path id="DejaVuSans-38" d="M 2034 2216 
Q 1584 2216 1326 1975 
Q 1069 1734 1069 1313 
Q 1069 891 1326 650 
Q 1584 409 2034 409 
Q 2484 409 2743 651 
Q 3003 894 3003 1313 
Q 3003 1734 2745 1975 
Q 2488 2216 2034 2216 
z
M 1403 2484 
Q 997 2584 770 2862 
Q 544 3141 544 3541 
Q 544 4100 942 4425 
Q 1341 4750 2034 4750 
Q 2731 4750 3128 4425 
Q 3525 4100 3525 3541 
Q 3525 3141 3298 2862 
Q 3072 2584 2669 2484 
Q 3125 2378 3379 2068 
Q 3634 1759 3634 1313 
Q 3634 634 3220 271 
Q 2806 -91 2034 -91 
Q 1263 -91 848 271 
Q 434 634 434 1313 
Q 434 1759 690 2068 
Q 947 2378 1403 2484 
z
M 1172 3481 
Q 1172 3119 1398 2916 
Q 1625 2713 2034 2713 
Q 2441 2713 2670 2916 
Q 2900 3119 2900 3481 
Q 2900 3844 2670 4047 
Q 2441 4250 2034 4250 
Q 1625 4250 1398 4047 
Q 1172 3844 1172 3481 
z
" transform="scale(0.015625)"/>
        <path id="DejaVuSans-30" d="M 2034 4250 
Q 1547 4250 1301 3770 
Q 1056 3291 1056 2328 
Q 1056 1369 1301 889 
Q 1547 409 2034 409 
Q 2525 409 2770 889 
Q 3016 1369 3016 2328 
Q 3016 3291 2770 3770 
Q 2525 4250 2034 4250 
z
M 2034 4750 
Q 2819 4750 3233 4129 
Q 3647 3509 3647 2328 
Q 3647 1150 3233 529 
Q 2819 -91 2034 -91 
Q 1250 -91 836 529 
Q 422 1150 422 2328 
Q 422 3509 836 4129 
Q 1250 4750 2034 4750 
z
" transform="scale(0.015625)"/>
       </defs>
       <use xlink:href="#DejaVuSans-31"/>
       <use xlink:href="#DejaVuSans-2e" x="63.623047"/>
       <use xlink:href="#DejaVuSans-36" x="95.410156"/>
       <use xlink:href="#DejaVuSans-38" x="159.033203"/>
       <use xlink:href="#DejaVuSans-30" x="222.65625"/>
      </g>
     </g>
    </g>
    <g id="xtick_3">
     <g id="line2d_5">
      <path d="M 185.417545 307.584 
L 185.417545 41.472 
" clip-path="url(#p43ea3db623)" style="fill: none; stroke: #b0b0b0; stroke-width: 0.8; stroke-linecap: square"/>
     </g>
     <g id="line2d_6">
      <g>
       <use xlink:href="#m00000bad64" x="185.417545" y="307.584" style="stroke: #000000; stroke-width: 0.8"/>
      </g>
     </g>
     <g id="text_3">
      <!-- 1.685 -->
      <g transform="translate(171.103483 322.182437) scale(0.1 -0.1)">
       <use xlink:href="#DejaVuSans-31"/>
       <use xlink:href="#DejaVuSans-2e" x="63.623047"/>
       <use xlink:href="#DejaVuSans-36" x="95.410156"/>
       <use xlink:href="#DejaVuSans-38" x="159.033203"/>
       <use xlink:href="#DejaVuSans-35" x="222.65625"/>
      </g>
     </g>
    </g>
    <g id="xtick_4">
     <g id="line2d_7">
      <path d="M 232.861684 307.584 
L 232.861684 41.472 
" clip-path="url(#p43ea3db623)" style="fill: none; stroke: #b0b0b0; stroke-width: 0.8; stroke-linecap: square"/>
     </g>
     <g id="line2d_8">
      <g>
       <use xlink:href="#m00000bad64" x="232.861684" y="307.584" style="stroke: #000000; stroke-width: 0.8"/>
      </g>
     </g>
     <g id="text_4">
      <!-- 1.690 -->
      <g transform="translate(218.547621 322.182437) scale(0.1 -0.1)">
       <defs>
        <path id="DejaVuSans-39" d="M 703 97 
L 703 672 
Q 941 559 1184 500 
Q 1428 441 1663 441 
Q 2288 441 2617 861 
Q 2947 1281 2994 2138 
Q 2813 1869 2534 1725 
Q 2256 1581 1919 1581 
Q 1219 1581 811 2004 
Q 403 2428 403 3163 
Q 403 3881 828 4315 
Q 1253 4750 1959 4750 
Q 2769 4750 3195 4129 
Q 3622 3509 3622 2328 
Q 3622 1225 3098 567 
Q 2575 -91 1691 -91 
Q 1453 -91 1209 -44 
Q 966 3 703 97 
z
M 1959 2075 
Q 2384 2075 2632 2365 
Q 2881 2656 2881 3163 
Q 2881 3666 2632 3958 
Q 2384 4250 1959 4250 
Q 1534 4250 1286 3958 
Q 1038 3666 1038 3163 
Q 1038 2656 1286 2365 
Q 1534 2075 1959 2075 
z
" transform="scale(0.015625)"/>
       </defs>
       <use xlink:href="#DejaVuSans-31"/>
       <use xlink:href="#DejaVuSans-2e" x="63.623047"/>
       <use xlink:href="#DejaVuSans-36" x="95.410156"/>
       <use xlink:href="#DejaVuSans-39" x="159.033203"/>
       <use xlink:href="#DejaVuSans-30" x="222.65625"/>
      </g>
     </g>
    </g>
    <g id="xtick_5">
     <g id="line2d_9">
      <path d="M 280.305822 307.584 
L 280.305822 41.472 
" clip-path="url(#p43ea3db623)" style="fill: none; stroke: #b0b0b0; stroke-width: 0.8; stroke-linecap: square"/>
     </g>
     <g id="line2d_10">
      <g>
       <use xlink:href="#m00000bad64" x="280.305822" y="307.584" style="stroke: #000000; stroke-width: 0.8"/>
      </g>
     </g>
     <g id="text_5">
      <!-- 1.695 -->
      <g transform="translate(265.991759 322.182437) scale(0.1 -0.1)">
       <use xlink:href="#DejaVuSans-31"/>
       <use xlink:href="#DejaVuSans-2e" x="63.623047"/>
       <use xlink:href="#DejaVuSans-36" x="95.410156"/>
       <use xlink:href="#DejaVuSans-39" x="159.033203"/>
       <use xlink:href="#DejaVuSans-35" x="222.65625"/>
      </g>
     </g>
    </g>
    <g id="xtick_6">
     <g id="line2d_11">
      <path d="M 327.74996 307.584 
L 327.74996 41.472 
" clip-path="url(#p43ea3db623)" style="fill: none; stroke: #b0b0b0; stroke-width: 0.8; stroke-linecap: square"/>
     </g>
     <g id="line2d_12">
      <g>
       <use xlink:href="#m00000bad64" x="327.74996" y="307.584" style="stroke: #000000; stroke-width: 0.8"/>
      </g>
     </g>
     <g id="text_6">
      <!-- 1.700 -->
      <g transform="translate(313.435898 322.182437) scale(0.1 -0.1)">
       <use xlink:href="#DejaVuSans-31"/>
       <use xlink:href="#DejaVuSans-2e" x="63.623047"/>
       <use xlink:href="#DejaVuSans-37" x="95.410156"/>
       <use xlink:href="#DejaVuSans-30" x="159.033203"/>
       <use xlink:href="#DejaVuSans-30" x="222.65625"/>
      </g>
     </g>
    </g>
    <g id="xtick_7">
     <g id="line2d_13">
      <path d="M 375.194099 307.584 
L 375.194099 41.472 
" clip-path="url(#p43ea3db623)" style="fill: none; stroke: #b0b0b0; stroke-width: 0.8; stroke-linecap: square"/>
     </g>
     <g id="line2d_14">
      <g>
       <use xlink:href="#m00000bad64" x="375.194099" y="307.584" style="stroke: #000000; stroke-width: 0.8"/>
      </g>
     </g>
     <g id="text_7">
      <!-- 1.705 -->
      <g transform="translate(360.880036 322.182437) scale(0.1 -0.1)">
       <use xlink:href="#DejaVuSans-31"/>
       <use xlink:href="#DejaVuSans-2e" x="63.623047"/>
       <use xlink:href="#DejaVuSans-37" x="95.410156"/>
       <use xlink:href="#DejaVuSans-30" x="159.033203"/>
       <use xlink:href="#DejaVuSans-35" x="222.65625"/>
      </g>
     </g>
    </g>
    <g id="text_8">
     <!-- Timestamp -->
     <g transform="translate(208.252969 335.860562) scale(0.1 -0.1)">
      <defs>
       <path id="DejaVuSans-54" d="M -19 4666 
L 3928 4666 
L 3928 4134 
L 2272 4134 
L 2272 0 
L 1638 0 
L 1638 4134 
L -19 4134 
L -19 4666 
z
" transform="scale(0.015625)"/>
       <path id="DejaVuSans-69" d="M 603 3500 
L 1178 3500 
L 1178 0 
L 603 0 
L 603 3500 
z
M 603 4863 
L 1178 4863 
L 1178 4134 
L 603 4134 
L 603 4863 
z
" transform="scale(0.015625)"/>
       <path id="DejaVuSans-6d" d="M 3328 2828 
Q 3544 3216 3844 3400 
Q 4144 3584 4550 3584 
Q 5097 3584 5394 3201 
Q 5691 2819 5691 2113 
L 5691 0 
L 5113 0 
L 5113 2094 
Q 5113 2597 4934 2840 
Q 4756 3084 4391 3084 
Q 3944 3084 3684 2787 
Q 3425 2491 3425 1978 
L 3425 0 
L 2847 0 
L 2847 2094 
Q 2847 2600 2669 2842 
Q 2491 3084 2119 3084 
Q 1678 3084 1418 2786 
Q 1159 2488 1159 1978 
L 1159 0 
L 581 0 
L 581 3500 
L 1159 3500 
L 1159 2956 
Q 1356 3278 1631 3431 
Q 1906 3584 2284 3584 
Q 2666 3584 2933 3390 
Q 3200 3197 3328 2828 
z
" transform="scale(0.015625)"/>
       <path id="DejaVuSans-65" d="M 3597 1894 
L 3597 1613 
L 953 1613 
Q 991 1019 1311 708 
Q 1631 397 2203 397 
Q 2534 397 2845 478 
Q 3156 559 3463 722 
L 3463 178 
Q 3153 47 2828 -22 
Q 2503 -91 2169 -91 
Q 1331 -91 842 396 
Q 353 884 353 1716 
Q 353 2575 817 3079 
Q 1281 3584 2069 3584 
Q 2775 3584 3186 3129 
Q 3597 2675 3597 1894 
z
M 3022 2063 
Q 3016 2534 2758 2815 
Q 2500 3097 2075 3097 
Q 1594 3097 1305 2825 
Q 1016 2553 972 2059 
L 3022 2063 
z
" transform="scale(0.015625)"/>
       <path id="DejaVuSans-73" d="M 2834 3397 
L 2834 2853 
Q 2591 2978 2328 3040 
Q 2066 3103 1784 3103 
Q 1356 3103 1142 2972 
Q 928 2841 928 2578 
Q 928 2378 1081 2264 
Q 1234 2150 1697 2047 
L 1894 2003 
Q 2506 1872 2764 1633 
Q 3022 1394 3022 966 
Q 3022 478 2636 193 
Q 2250 -91 1575 -91 
Q 1294 -91 989 -36 
Q 684 19 347 128 
L 347 722 
Q 666 556 975 473 
Q 1284 391 1588 391 
Q 1994 391 2212 530 
Q 2431 669 2431 922 
Q 2431 1156 2273 1281 
Q 2116 1406 1581 1522 
L 1381 1569 
Q 847 1681 609 1914 
Q 372 2147 372 2553 
Q 372 3047 722 3315 
Q 1072 3584 1716 3584 
Q 2034 3584 2315 3537 
Q 2597 3491 2834 3397 
z
" transform="scale(0.015625)"/>
       <path id="DejaVuSans-74" d="M 1172 4494 
L 1172 3500 
L 2356 3500 
L 2356 3053 
L 1172 3053 
L 1172 1153 
Q 1172 725 1289 603 
Q 1406 481 1766 481 
L 2356 481 
L 2356 0 
L 1766 0 
Q 1100 0 847 248 
Q 594 497 594 1153 
L 594 3053 
L 172 3053 
L 172 3500 
L 594 3500 
L 594 4494 
L 1172 4494 
z
" transform="scale(0.015625)"/>
       <path id="DejaVuSans-61" d="M 2194 1759 
Q 1497 1759 1228 1600 
Q 959 1441 959 1056 
Q 959 750 1161 570 
Q 1363 391 1709 391 
Q 2188 391 2477 730 
Q 2766 1069 2766 1631 
L 2766 1759 
L 2194 1759 
z
M 3341 1997 
L 3341 0 
L 2766 0 
L 2766 531 
Q 2569 213 2275 61 
Q 1981 -91 1556 -91 
Q 1019 -91 701 211 
Q 384 513 384 1019 
Q 384 1609 779 1909 
Q 1175 2209 1959 2209 
L 2766 2209 
L 2766 2266 
Q 2766 2663 2505 2880 
Q 2244 3097 1772 3097 
Q 1472 3097 1187 3025 
Q 903 2953 641 2809 
L 641 3341 
Q 956 3463 1253 3523 
Q 1550 3584 1831 3584 
Q 2591 3584 2966 3190 
Q 3341 2797 3341 1997 
z
" transform="scale(0.015625)"/>
       <path id="DejaVuSans-70" d="M 1159 525 
L 1159 -1331 
L 581 -1331 
L 581 3500 
L 1159 3500 
L 1159 2969 
Q 1341 3281 1617 3432 
Q 1894 3584 2278 3584 
Q 2916 3584 3314 3078 
Q 3713 2572 3713 1747 
Q 3713 922 3314 415 
Q 2916 -91 2278 -91 
Q 1894 -91 1617 61 
Q 1341 213 1159 525 
z
M 3116 1747 
Q 3116 2381 2855 2742 
Q 2594 3103 2138 3103 
Q 1681 3103 1420 2742 
Q 1159 2381 1159 1747 
Q 1159 1113 1420 752 
Q 1681 391 2138 391 
Q 2594 391 2855 752 
Q 3116 1113 3116 1747 
z
" transform="scale(0.015625)"/>
      </defs>
      <use xlink:href="#DejaVuSans-54"/>
      <use xlink:href="#DejaVuSans-69" x="57.958984"/>
      <use xlink:href="#DejaVuSans-6d" x="85.742188"/>
      <use xlink:href="#DejaVuSans-65" x="183.154297"/>
      <use xlink:href="#DejaVuSans-73" x="244.677734"/>
      <use xlink:href="#DejaVuSans-74" x="296.777344"/>
      <use xlink:href="#DejaVuSans-61" x="335.986328"/>
      <use xlink:href="#DejaVuSans-6d" x="397.265625"/>
      <use xlink:href="#DejaVuSans-70" x="494.677734"/>
     </g>
    </g>
    <g id="text_9">
     <!-- 1e12 -->
     <g transform="translate(389.479375 334.860562) scale(0.1 -0.1)">
      <defs>
       <path id="DejaVuSans-32" d="M 1228 531 
L 3431 531 
L 3431 0 
L 469 0 
L 469 531 
Q 828 903 1448 1529 
Q 2069 2156 2228 2338 
Q 2531 2678 2651 2914 
Q 2772 3150 2772 3378 
Q 2772 3750 2511 3984 
Q 2250 4219 1831 4219 
Q 1534 4219 1204 4116 
Q 875 4013 500 3803 
L 500 4441 
Q 881 4594 1212 4672 
Q 1544 4750 1819 4750 
Q 2544 4750 2975 4387 
Q 3406 4025 3406 3419 
Q 3406 3131 3298 2873 
Q 3191 2616 2906 2266 
Q 2828 2175 2409 1742 
Q 1991 1309 1228 531 
z
" transform="scale(0.015625)"/>
      </defs>
      <use xlink:href="#DejaVuSans-31"/>
      <use xlink:href="#DejaVuSans-65" x="63.623047"/>
      <use xlink:href="#DejaVuSans-31" x="125.146484"/>
      <use xlink:href="#DejaVuSans-32" x="188.769531"/>
     </g>
    </g>
   </g>
   <g id="matplotlib.axis_2">
    <g id="ytick_1">
     <g id="line2d_15">
      <path d="M 57.6 276.769758 
L 414.72 276.769758 
" clip-path="url(#p43ea3db623)" style="fill: none; stroke: #b0b0b0; stroke-width: 0.8; stroke-linecap: square"/>
     </g>
     <g id="line2d_16">
      <defs>
       <path id="m573e65505f" d="M 0 0 
L -3.5 0 
" style="stroke: #000000; stroke-width: 0.8"/>
      </defs>
      <g>
       <use xlink:href="#m573e65505f" x="57.6" y="276.769758" style="stroke: #000000; stroke-width: 0.8"/>
      </g>
     </g>
     <g id="text_10">
      <!-- 20 -->
      <g transform="translate(37.875 280.568977) scale(0.1 -0.1)">
       <use xlink:href="#DejaVuSans-32"/>
       <use xlink:href="#DejaVuSans-30" x="63.623047"/>
      </g>
     </g>
    </g>
    <g id="ytick_2">
     <g id="line2d_17">
      <path d="M 57.6 233.955848 
L 414.72 233.955848 
" clip-path="url(#p43ea3db623)" style="fill: none; stroke: #b0b0b0; stroke-width: 0.8; stroke-linecap: square"/>
     </g>
     <g id="line2d_18">
      <g>
       <use xlink:href="#m573e65505f" x="57.6" y="233.955848" style="stroke: #000000; stroke-width: 0.8"/>
      </g>
     </g>
     <g id="text_11">
      <!-- 30 -->
      <g transform="translate(37.875 237.755067) scale(0.1 -0.1)">
       <defs>
        <path id="DejaVuSans-33" d="M 2597 2516 
Q 3050 2419 3304 2112 
Q 3559 1806 3559 1356 
Q 3559 666 3084 287 
Q 2609 -91 1734 -91 
Q 1441 -91 1130 -33 
Q 819 25 488 141 
L 488 750 
Q 750 597 1062 519 
Q 1375 441 1716 441 
Q 2309 441 2620 675 
Q 2931 909 2931 1356 
Q 2931 1769 2642 2001 
Q 2353 2234 1838 2234 
L 1294 2234 
L 1294 2753 
L 1863 2753 
Q 2328 2753 2575 2939 
Q 2822 3125 2822 3475 
Q 2822 3834 2567 4026 
Q 2313 4219 1838 4219 
Q 1578 4219 1281 4162 
Q 984 4106 628 3988 
L 628 4550 
Q 988 4650 1302 4700 
Q 1616 4750 1894 4750 
Q 2613 4750 3031 4423 
Q 3450 4097 3450 3541 
Q 3450 3153 3228 2886 
Q 3006 2619 2597 2516 
z
" transform="scale(0.015625)"/>
       </defs>
       <use xlink:href="#DejaVuSans-33"/>
       <use xlink:href="#DejaVuSans-30" x="63.623047"/>
      </g>
     </g>
    </g>
    <g id="ytick_3">
     <g id="line2d_19">
      <path d="M 57.6 191.141938 
L 414.72 191.141938 
" clip-path="url(#p43ea3db623)" style="fill: none; stroke: #b0b0b0; stroke-width: 0.8; stroke-linecap: square"/>
     </g>
     <g id="line2d_20">
      <g>
       <use xlink:href="#m573e65505f" x="57.6" y="191.141938" style="stroke: #000000; stroke-width: 0.8"/>
      </g>
     </g>
     <g id="text_12">
      <!-- 40 -->
      <g transform="translate(37.875 194.941157) scale(0.1 -0.1)">
       <defs>
        <path id="DejaVuSans-34" d="M 2419 4116 
L 825 1625 
L 2419 1625 
L 2419 4116 
z
M 2253 4666 
L 3047 4666 
L 3047 1625 
L 3713 1625 
L 3713 1100 
L 3047 1100 
L 3047 0 
L 2419 0 
L 2419 1100 
L 313 1100 
L 313 1709 
L 2253 4666 
z
" transform="scale(0.015625)"/>
       </defs>
       <use xlink:href="#DejaVuSans-34"/>
       <use xlink:href="#DejaVuSans-30" x="63.623047"/>
      </g>
     </g>
    </g>
    <g id="ytick_4">
     <g id="line2d_21">
      <path d="M 57.6 148.328028 
L 414.72 148.328028 
" clip-path="url(#p43ea3db623)" style="fill: none; stroke: #b0b0b0; stroke-width: 0.8; stroke-linecap: square"/>
     </g>
     <g id="line2d_22">
      <g>
       <use xlink:href="#m573e65505f" x="57.6" y="148.328028" style="stroke: #000000; stroke-width: 0.8"/>
      </g>
     </g>
     <g id="text_13">
      <!-- 50 -->
      <g transform="translate(37.875 152.127246) scale(0.1 -0.1)">
       <use xlink:href="#DejaVuSans-35"/>
       <use xlink:href="#DejaVuSans-30" x="63.623047"/>
      </g>
     </g>
    </g>
    <g id="ytick_5">
     <g id="line2d_23">
      <path d="M 57.6 105.514117 
L 414.72 105.514117 
" clip-path="url(#p43ea3db623)" style="fill: none; stroke: #b0b0b0; stroke-width: 0.8; stroke-linecap: square"/>
     </g>
     <g id="line2d_24">
      <g>
       <use xlink:href="#m573e65505f" x="57.6" y="105.514117" style="stroke: #000000; stroke-width: 0.8"/>
      </g>
     </g>
     <g id="text_14">
      <!-- 60 -->
      <g transform="translate(37.875 109.313336) scale(0.1 -0.1)">
       <use xlink:href="#DejaVuSans-36"/>
       <use xlink:href="#DejaVuSans-30" x="63.623047"/>
      </g>
     </g>
    </g>
    <g id="ytick_6">
     <g id="line2d_25">
      <path d="M 57.6 62.700207 
L 414.72 62.700207 
" clip-path="url(#p43ea3db623)" style="fill: none; stroke: #b0b0b0; stroke-width: 0.8; stroke-linecap: square"/>
     </g>
     <g id="line2d_26">
      <g>
       <use xlink:href="#m573e65505f" x="57.6" y="62.700207" style="stroke: #000000; stroke-width: 0.8"/>
      </g>
     </g>
     <g id="text_15">
      <!-- 70 -->
      <g transform="translate(37.875 66.499426) scale(0.1 -0.1)">
       <use xlink:href="#DejaVuSans-37"/>
       <use xlink:href="#DejaVuSans-30" x="63.623047"/>
      </g>
     </g>
    </g>
    <g id="text_16">
     <!-- Close Price/$ -->
     <g transform="translate(31.795312 206.801437) rotate(-90) scale(0.1 -0.1)">
      <defs>
       <path id="DejaVuSans-43" d="M 4122 4306 
L 4122 3641 
Q 3803 3938 3442 4084 
Q 3081 4231 2675 4231 
Q 1875 4231 1450 3742 
Q 1025 3253 1025 2328 
Q 1025 1406 1450 917 
Q 1875 428 2675 428 
Q 3081 428 3442 575 
Q 3803 722 4122 1019 
L 4122 359 
Q 3791 134 3420 21 
Q 3050 -91 2638 -91 
Q 1578 -91 968 557 
Q 359 1206 359 2328 
Q 359 3453 968 4101 
Q 1578 4750 2638 4750 
Q 3056 4750 3426 4639 
Q 3797 4528 4122 4306 
z
" transform="scale(0.015625)"/>
       <path id="DejaVuSans-6c" d="M 603 4863 
L 1178 4863 
L 1178 0 
L 603 0 
L 603 4863 
z
" transform="scale(0.015625)"/>
       <path id="DejaVuSans-6f" d="M 1959 3097 
Q 1497 3097 1228 2736 
Q 959 2375 959 1747 
Q 959 1119 1226 758 
Q 1494 397 1959 397 
Q 2419 397 2687 759 
Q 2956 1122 2956 1747 
Q 2956 2369 2687 2733 
Q 2419 3097 1959 3097 
z
M 1959 3584 
Q 2709 3584 3137 3096 
Q 3566 2609 3566 1747 
Q 3566 888 3137 398 
Q 2709 -91 1959 -91 
Q 1206 -91 779 398 
Q 353 888 353 1747 
Q 353 2609 779 3096 
Q 1206 3584 1959 3584 
z
" transform="scale(0.015625)"/>
       <path id="DejaVuSans-20" transform="scale(0.015625)"/>
       <path id="DejaVuSans-50" d="M 1259 4147 
L 1259 2394 
L 2053 2394 
Q 2494 2394 2734 2622 
Q 2975 2850 2975 3272 
Q 2975 3691 2734 3919 
Q 2494 4147 2053 4147 
L 1259 4147 
z
M 628 4666 
L 2053 4666 
Q 2838 4666 3239 4311 
Q 3641 3956 3641 3272 
Q 3641 2581 3239 2228 
Q 2838 1875 2053 1875 
L 1259 1875 
L 1259 0 
L 628 0 
L 628 4666 
z
" transform="scale(0.015625)"/>
       <path id="DejaVuSans-72" d="M 2631 2963 
Q 2534 3019 2420 3045 
Q 2306 3072 2169 3072 
Q 1681 3072 1420 2755 
Q 1159 2438 1159 1844 
L 1159 0 
L 581 0 
L 581 3500 
L 1159 3500 
L 1159 2956 
Q 1341 3275 1631 3429 
Q 1922 3584 2338 3584 
Q 2397 3584 2469 3576 
Q 2541 3569 2628 3553 
L 2631 2963 
z
" transform="scale(0.015625)"/>
       <path id="DejaVuSans-63" d="M 3122 3366 
L 3122 2828 
Q 2878 2963 2633 3030 
Q 2388 3097 2138 3097 
Q 1578 3097 1268 2742 
Q 959 2388 959 1747 
Q 959 1106 1268 751 
Q 1578 397 2138 397 
Q 2388 397 2633 464 
Q 2878 531 3122 666 
L 3122 134 
Q 2881 22 2623 -34 
Q 2366 -91 2075 -91 
Q 1284 -91 818 406 
Q 353 903 353 1747 
Q 353 2603 823 3093 
Q 1294 3584 2113 3584 
Q 2378 3584 2631 3529 
Q 2884 3475 3122 3366 
z
" transform="scale(0.015625)"/>
       <path id="DejaVuSans-2f" d="M 1625 4666 
L 2156 4666 
L 531 -594 
L 0 -594 
L 1625 4666 
z
" transform="scale(0.015625)"/>
       <path id="DejaVuSans-24" d="M 2163 -941 
L 1850 -941 
L 1847 0 
Q 1519 6 1191 76 
Q 863 147 531 288 
L 531 850 
Q 850 650 1176 548 
Q 1503 447 1850 444 
L 1850 1869 
Q 1159 1981 845 2250 
Q 531 2519 531 2988 
Q 531 3497 872 3790 
Q 1213 4084 1850 4128 
L 1850 4863 
L 2163 4863 
L 2163 4138 
Q 2453 4125 2725 4076 
Q 2997 4028 3256 3944 
L 3256 3397 
Q 2997 3528 2723 3600 
Q 2450 3672 2163 3684 
L 2163 2350 
Q 2872 2241 3206 1959 
Q 3541 1678 3541 1191 
Q 3541 663 3186 358 
Q 2831 53 2163 6 
L 2163 -941 
z
M 1850 2406 
L 1850 3688 
Q 1488 3647 1297 3481 
Q 1106 3316 1106 3041 
Q 1106 2772 1282 2622 
Q 1459 2472 1850 2406 
z
M 2163 1806 
L 2163 453 
Q 2559 506 2761 678 
Q 2963 850 2963 1131 
Q 2963 1406 2770 1568 
Q 2578 1731 2163 1806 
z
" transform="scale(0.015625)"/>
      </defs>
      <use xlink:href="#DejaVuSans-43"/>
      <use xlink:href="#DejaVuSans-6c" x="69.824219"/>
      <use xlink:href="#DejaVuSans-6f" x="97.607422"/>
      <use xlink:href="#DejaVuSans-73" x="158.789062"/>
      <use xlink:href="#DejaVuSans-65" x="210.888672"/>
      <use xlink:href="#DejaVuSans-20" x="272.412109"/>
      <use xlink:href="#DejaVuSans-50" x="304.199219"/>
      <use xlink:href="#DejaVuSans-72" x="362.751953"/>
      <use xlink:href="#DejaVuSans-69" x="403.865234"/>
      <use xlink:href="#DejaVuSans-63" x="431.648438"/>
      <use xlink:href="#DejaVuSans-65" x="486.628906"/>
      <use xlink:href="#DejaVuSans-2f" x="548.152344"/>
      <use xlink:href="#DejaVuSans-24" x="581.84375"/>
     </g>
    </g>
   </g>
   <g id="line2d_27">
    <path d="M 73.832727 295.488 
L 74.652562 294.284929 
L 75.472397 293.891041 
L 76.292231 291.707532 
L 77.112066 290.046352 
L 80.391405 286.608395 
L 81.21124 287.999847 
L 82.031074 290.620058 
L 82.850909 286.021844 
L 85.310413 280.224841 
L 86.950083 279.66826 
L 87.769917 277.617474 
L 88.589752 275.207051 
L 91.049256 280.357564 
L 91.869091 278.752042 
L 92.688926 272.732407 
L 93.50876 269.452861 
L 94.328595 272.060228 
L 96.788099 272.107324 
L 97.607934 267.466296 
L 98.427769 267.329291 
L 99.247603 266.764148 
L 100.067438 271.353799 
L 102.526942 269.114631 
L 103.346777 264.049746 
L 104.166612 264.935994 
L 104.986446 268.198414 
L 105.806281 270.827188 
L 109.08562 273.965447 
L 109.905455 273.54159 
L 110.725289 261.082742 
L 111.545124 262.701108 
L 114.004628 261.780608 
L 114.824463 263.000805 
L 115.644298 265.218565 
L 117.283967 260.115147 
L 119.743471 261.553695 
L 120.563306 262.692545 
L 121.38314 258.869263 
L 122.202975 262.058899 
L 123.02281 264.075434 
L 125.448154 264.071153 
L 126.267989 259.374467 
L 127.087824 258.668037 
L 127.907658 253.046571 
L 128.727493 252.258795 
L 131.186997 251.509551 
L 132.826667 249.077721 
L 133.646501 245.982276 
L 134.466336 247.746209 
L 136.92584 248.807994 
L 137.745675 249.326042 
L 138.56551 246.868523 
L 140.205179 243.47338 
L 142.664683 242.668479 
L 144.304353 247.309507 
L 145.124187 246.64161 
L 148.403526 244.321096 
L 149.223361 246.076466 
L 150.043196 248.962124 
L 150.86303 249.099128 
L 151.682865 247.836118 
L 154.142369 246.791458 
L 154.962204 243.944333 
L 155.782039 242.814046 
L 156.601873 246.354757 
L 157.421708 246.290536 
L 159.881212 246.620203 
L 160.701047 250.049597 
L 161.520882 246.988402 
L 162.340716 245.832427 
L 163.160551 243.593259 
L 165.620055 238.622564 
L 166.43989 241.619538 
L 167.259725 243.366346 
L 168.079559 244.393879 
L 168.899394 239.607284 
L 171.358898 237.590749 
L 172.178733 240.073956 
L 172.998567 238.729599 
L 173.818402 240.043986 
L 174.638237 241.062957 
L 177.097741 238.438465 
L 177.917576 237.325303 
L 178.73741 233.193761 
L 179.557245 226.771674 
L 180.37708 228.54417 
L 182.836584 228.920932 
L 183.656419 231.010251 
L 184.476253 231.65246 
L 185.296088 199.790348 
L 186.115923 195.654524 
L 189.395262 190.666703 
L 190.215096 200.415431 
L 191.034931 192.126658 
L 191.854766 194.023314 
L 194.31427 194.691211 
L 195.134105 196.90469 
L 195.953939 201.95245 
L 196.773774 197.521211 
L 197.593609 196.408049 
L 200.053113 193.359698 
L 200.872948 186.766356 
L 201.692782 178.310609 
L 202.512617 179.783407 
L 203.332452 179.616433 
L 206.611791 174.838401 
L 207.431625 178.105102 
L 208.25146 178.19073 
L 209.071295 181.684345 
L 211.530799 188.436099 
L 212.350634 183.110048 
L 213.170468 186.359624 
L 213.990303 187.622634 
L 214.810138 181.286176 
L 217.269642 180.810941 
L 218.909311 181.221955 
L 219.729146 182.138173 
L 220.548981 180.425616 
L 223.008485 181.808505 
L 223.82832 180.845192 
L 224.648154 174.43595 
L 225.467989 165.552064 
L 226.287824 167.72701 
L 228.747328 163.47987 
L 229.567163 159.057194 
L 230.386997 160.842534 
L 231.206832 167.508659 
L 232.026667 172.693424 
L 234.486171 171.396162 
L 235.306006 166.827918 
L 236.12584 167.799794 
L 236.945675 165.881731 
L 237.76551 162.242548 
L 240.225014 162.332458 
L 241.044848 163.282926 
L 241.864683 172.86468 
L 242.684518 171.811457 
L 243.504353 171.105028 
L 245.963857 167.951783 
L 246.783691 171.17353 
L 247.603526 180.207265 
L 248.423361 180.917976 
L 249.243196 187.481349 
L 251.7027 175.073877 
L 252.522534 174.273257 
L 253.342369 176.217009 
L 254.162204 176.827107 
L 254.982039 177.017629 
L 257.441543 161.313487 
L 258.261377 166.875014 
L 259.081212 160.675559 
L 259.901047 160.474334 
L 260.720882 165.376527 
L 263.180386 161.87863 
L 264.00022 153.534199 
L 264.820055 151.479131 
L 265.63989 151.089525 
L 266.459725 154.711582 
L 269.739063 154.544607 
L 270.558898 160.911036 
L 271.378733 164.421776 
L 272.198567 167.286027 
L 274.658072 168.972895 
L 275.477906 170.291564 
L 276.297741 167.658508 
L 277.117576 167.247495 
L 277.93741 174.444513 
L 280.396915 174.161941 
L 281.216749 176.071441 
L 282.856419 186.787763 
L 283.676253 184.248898 
L 286.135758 181.628687 
L 286.955592 182.9602 
L 288.595262 177.916721 
L 291.874601 170.668326 
L 292.694435 176.084286 
L 293.51427 173.840837 
L 294.334105 171.070777 
L 295.153939 166.472563 
L 297.613444 168.566163 
L 298.433278 166.318433 
L 299.253113 162.002791 
L 300.072948 161.407677 
L 300.892782 167.761261 
L 303.352287 165.04686 
L 304.172121 174.28182 
L 304.991956 181.740003 
L 305.811791 182.146735 
L 306.631625 185.203649 
L 309.091129 178.4048 
L 309.910964 175.459203 
L 310.730799 183.525343 
L 311.550634 189.746204 
L 312.370468 189.001242 
L 314.829972 186.171243 
L 315.649807 187.802453 
L 316.469642 181.187704 
L 317.289477 176.131381 
L 318.109311 169.713576 
L 321.42281 165.646254 
L 322.242645 162.996073 
L 323.062479 161.38627 
L 323.882314 155.456544 
L 326.341818 154.236347 
L 327.161653 149.800826 
L 327.981488 153.088934 
L 328.801322 150.554351 
L 329.621157 151.333564 
L 332.080661 146.576939 
L 332.900496 148.567786 
L 333.720331 153.825334 
L 335.36 157.849841 
L 337.819504 155.854713 
L 338.639339 157.657179 
L 339.459174 156.291415 
L 340.279008 162.156921 
L 341.098843 162.178328 
L 343.558347 167.551473 
L 344.378182 163.030324 
L 345.198017 167.581443 
L 346.017851 162.901883 
L 346.837686 159.005817 
L 349.29719 162.76916 
L 350.117025 158.359327 
L 350.93686 156.514047 
L 351.756694 155.392323 
L 352.576529 153.080372 
L 355.036033 147.99836 
L 355.855868 150.023458 
L 356.675702 156.415575 
L 357.495537 152.652233 
L 358.315372 153.337255 
L 363.23438 150.374533 
L 364.054215 150.374533 
L 367.333554 156.171536 
L 368.153388 158.736089 
L 368.973223 156.899372 
L 372.252562 138.682054 
L 373.072397 134.88446 
L 373.892231 129.703977 
L 374.712066 127.68316 
L 375.531901 128.162676 
L 378.81124 121.00419 
L 379.631074 122.412768 
L 380.450909 117.900182 
L 381.270744 107.693345 
L 383.730248 106.995479 
L 384.550083 106.057854 
L 385.369917 99.682863 
L 386.189752 98.591108 
L 387.009587 101.100003 
L 389.469091 94.960488 
L 390.288926 93.637539 
L 391.10876 98.976433 
L 391.928595 92.554347 
L 392.74843 79.140749 
L 395.207934 65.560176 
L 396.027769 70.308239 
L 396.847603 62.276349 
L 397.667438 64.237226 
L 398.487273 53.568 
L 398.487273 53.568 
" clip-path="url(#p43ea3db623)" style="fill: none; stroke: #1f77b4; stroke-width: 1.5; stroke-linecap: square"/>
    <defs>
     <path id="m11c30ad217" d="M 0 3 
C 0.795609 3 1.55874 2.683901 2.12132 2.12132 
C 2.683901 1.55874 3 0.795609 3 0 
C 3 -0.795609 2.683901 -1.55874 2.12132 -2.12132 
C 1.55874 -2.683901 0.795609 -3 0 -3 
C -0.795609 -3 -1.55874 -2.683901 -2.12132 -2.12132 
C -2.683901 -1.55874 -3 -0.795609 -3 0 
C -3 0.795609 -2.683901 1.55874 -2.12132 2.12132 
C -1.55874 2.683901 -0.795609 3 0 3 
z
" style="stroke: #1f77b4"/>
    </defs>
    <g clip-path="url(#p43ea3db623)">
     <use xlink:href="#m11c30ad217" x="73.832727" y="295.488" style="fill: #1f77b4; stroke: #1f77b4"/>
     <use xlink:href="#m11c30ad217" x="74.652562" y="294.284929" style="fill: #1f77b4; stroke: #1f77b4"/>
     <use xlink:href="#m11c30ad217" x="75.472397" y="293.891041" style="fill: #1f77b4; stroke: #1f77b4"/>
     <use xlink:href="#m11c30ad217" x="76.292231" y="291.707532" style="fill: #1f77b4; stroke: #1f77b4"/>
     <use xlink:href="#m11c30ad217" x="77.112066" y="290.046352" style="fill: #1f77b4; stroke: #1f77b4"/>
     <use xlink:href="#m11c30ad217" x="80.391405" y="286.608395" style="fill: #1f77b4; stroke: #1f77b4"/>
     <use xlink:href="#m11c30ad217" x="81.21124" y="287.999847" style="fill: #1f77b4; stroke: #1f77b4"/>
     <use xlink:href="#m11c30ad217" x="82.031074" y="290.620058" style="fill: #1f77b4; stroke: #1f77b4"/>
     <use xlink:href="#m11c30ad217" x="82.850909" y="286.021844" style="fill: #1f77b4; stroke: #1f77b4"/>
     <use xlink:href="#m11c30ad217" x="85.310413" y="280.224841" style="fill: #1f77b4; stroke: #1f77b4"/>
     <use xlink:href="#m11c30ad217" x="86.130248" y="279.916581" style="fill: #1f77b4; stroke: #1f77b4"/>
     <use xlink:href="#m11c30ad217" x="86.950083" y="279.66826" style="fill: #1f77b4; stroke: #1f77b4"/>
     <use xlink:href="#m11c30ad217" x="87.769917" y="277.617474" style="fill: #1f77b4; stroke: #1f77b4"/>
     <use xlink:href="#m11c30ad217" x="88.589752" y="275.207051" style="fill: #1f77b4; stroke: #1f77b4"/>
     <use xlink:href="#m11c30ad217" x="91.049256" y="280.357564" style="fill: #1f77b4; stroke: #1f77b4"/>
     <use xlink:href="#m11c30ad217" x="91.869091" y="278.752042" style="fill: #1f77b4; stroke: #1f77b4"/>
     <use xlink:href="#m11c30ad217" x="92.688926" y="272.732407" style="fill: #1f77b4; stroke: #1f77b4"/>
     <use xlink:href="#m11c30ad217" x="93.50876" y="269.452861" style="fill: #1f77b4; stroke: #1f77b4"/>
     <use xlink:href="#m11c30ad217" x="94.328595" y="272.060228" style="fill: #1f77b4; stroke: #1f77b4"/>
     <use xlink:href="#m11c30ad217" x="96.788099" y="272.107324" style="fill: #1f77b4; stroke: #1f77b4"/>
     <use xlink:href="#m11c30ad217" x="97.607934" y="267.466296" style="fill: #1f77b4; stroke: #1f77b4"/>
     <use xlink:href="#m11c30ad217" x="98.427769" y="267.329291" style="fill: #1f77b4; stroke: #1f77b4"/>
     <use xlink:href="#m11c30ad217" x="99.247603" y="266.764148" style="fill: #1f77b4; stroke: #1f77b4"/>
     <use xlink:href="#m11c30ad217" x="100.067438" y="271.353799" style="fill: #1f77b4; stroke: #1f77b4"/>
     <use xlink:href="#m11c30ad217" x="102.526942" y="269.114631" style="fill: #1f77b4; stroke: #1f77b4"/>
     <use xlink:href="#m11c30ad217" x="103.346777" y="264.049746" style="fill: #1f77b4; stroke: #1f77b4"/>
     <use xlink:href="#m11c30ad217" x="104.166612" y="264.935994" style="fill: #1f77b4; stroke: #1f77b4"/>
     <use xlink:href="#m11c30ad217" x="104.986446" y="268.198414" style="fill: #1f77b4; stroke: #1f77b4"/>
     <use xlink:href="#m11c30ad217" x="105.806281" y="270.827188" style="fill: #1f77b4; stroke: #1f77b4"/>
     <use xlink:href="#m11c30ad217" x="109.08562" y="273.965447" style="fill: #1f77b4; stroke: #1f77b4"/>
     <use xlink:href="#m11c30ad217" x="109.905455" y="273.54159" style="fill: #1f77b4; stroke: #1f77b4"/>
     <use xlink:href="#m11c30ad217" x="110.725289" y="261.082742" style="fill: #1f77b4; stroke: #1f77b4"/>
     <use xlink:href="#m11c30ad217" x="111.545124" y="262.701108" style="fill: #1f77b4; stroke: #1f77b4"/>
     <use xlink:href="#m11c30ad217" x="114.004628" y="261.780608" style="fill: #1f77b4; stroke: #1f77b4"/>
     <use xlink:href="#m11c30ad217" x="114.824463" y="263.000805" style="fill: #1f77b4; stroke: #1f77b4"/>
     <use xlink:href="#m11c30ad217" x="115.644298" y="265.218565" style="fill: #1f77b4; stroke: #1f77b4"/>
     <use xlink:href="#m11c30ad217" x="116.464132" y="262.581229" style="fill: #1f77b4; stroke: #1f77b4"/>
     <use xlink:href="#m11c30ad217" x="117.283967" y="260.115147" style="fill: #1f77b4; stroke: #1f77b4"/>
     <use xlink:href="#m11c30ad217" x="119.743471" y="261.553695" style="fill: #1f77b4; stroke: #1f77b4"/>
     <use xlink:href="#m11c30ad217" x="120.563306" y="262.692545" style="fill: #1f77b4; stroke: #1f77b4"/>
     <use xlink:href="#m11c30ad217" x="121.38314" y="258.869263" style="fill: #1f77b4; stroke: #1f77b4"/>
     <use xlink:href="#m11c30ad217" x="122.202975" y="262.058899" style="fill: #1f77b4; stroke: #1f77b4"/>
     <use xlink:href="#m11c30ad217" x="123.02281" y="264.075434" style="fill: #1f77b4; stroke: #1f77b4"/>
     <use xlink:href="#m11c30ad217" x="125.448154" y="264.071153" style="fill: #1f77b4; stroke: #1f77b4"/>
     <use xlink:href="#m11c30ad217" x="126.267989" y="259.374467" style="fill: #1f77b4; stroke: #1f77b4"/>
     <use xlink:href="#m11c30ad217" x="127.087824" y="258.668037" style="fill: #1f77b4; stroke: #1f77b4"/>
     <use xlink:href="#m11c30ad217" x="127.907658" y="253.046571" style="fill: #1f77b4; stroke: #1f77b4"/>
     <use xlink:href="#m11c30ad217" x="128.727493" y="252.258795" style="fill: #1f77b4; stroke: #1f77b4"/>
     <use xlink:href="#m11c30ad217" x="131.186997" y="251.509551" style="fill: #1f77b4; stroke: #1f77b4"/>
     <use xlink:href="#m11c30ad217" x="132.006832" y="250.229415" style="fill: #1f77b4; stroke: #1f77b4"/>
     <use xlink:href="#m11c30ad217" x="132.826667" y="249.077721" style="fill: #1f77b4; stroke: #1f77b4"/>
     <use xlink:href="#m11c30ad217" x="133.646501" y="245.982276" style="fill: #1f77b4; stroke: #1f77b4"/>
     <use xlink:href="#m11c30ad217" x="134.466336" y="247.746209" style="fill: #1f77b4; stroke: #1f77b4"/>
     <use xlink:href="#m11c30ad217" x="136.92584" y="248.807994" style="fill: #1f77b4; stroke: #1f77b4"/>
     <use xlink:href="#m11c30ad217" x="137.745675" y="249.326042" style="fill: #1f77b4; stroke: #1f77b4"/>
     <use xlink:href="#m11c30ad217" x="138.56551" y="246.868523" style="fill: #1f77b4; stroke: #1f77b4"/>
     <use xlink:href="#m11c30ad217" x="139.385344" y="245.160248" style="fill: #1f77b4; stroke: #1f77b4"/>
     <use xlink:href="#m11c30ad217" x="140.205179" y="243.47338" style="fill: #1f77b4; stroke: #1f77b4"/>
     <use xlink:href="#m11c30ad217" x="142.664683" y="242.668479" style="fill: #1f77b4; stroke: #1f77b4"/>
     <use xlink:href="#m11c30ad217" x="143.484518" y="244.860551" style="fill: #1f77b4; stroke: #1f77b4"/>
     <use xlink:href="#m11c30ad217" x="144.304353" y="247.309507" style="fill: #1f77b4; stroke: #1f77b4"/>
     <use xlink:href="#m11c30ad217" x="145.124187" y="246.64161" style="fill: #1f77b4; stroke: #1f77b4"/>
     <use xlink:href="#m11c30ad217" x="148.403526" y="244.321096" style="fill: #1f77b4; stroke: #1f77b4"/>
     <use xlink:href="#m11c30ad217" x="149.223361" y="246.076466" style="fill: #1f77b4; stroke: #1f77b4"/>
     <use xlink:href="#m11c30ad217" x="150.043196" y="248.962124" style="fill: #1f77b4; stroke: #1f77b4"/>
     <use xlink:href="#m11c30ad217" x="150.86303" y="249.099128" style="fill: #1f77b4; stroke: #1f77b4"/>
     <use xlink:href="#m11c30ad217" x="151.682865" y="247.836118" style="fill: #1f77b4; stroke: #1f77b4"/>
     <use xlink:href="#m11c30ad217" x="154.142369" y="246.791458" style="fill: #1f77b4; stroke: #1f77b4"/>
     <use xlink:href="#m11c30ad217" x="154.962204" y="243.944333" style="fill: #1f77b4; stroke: #1f77b4"/>
     <use xlink:href="#m11c30ad217" x="155.782039" y="242.814046" style="fill: #1f77b4; stroke: #1f77b4"/>
     <use xlink:href="#m11c30ad217" x="156.601873" y="246.354757" style="fill: #1f77b4; stroke: #1f77b4"/>
     <use xlink:href="#m11c30ad217" x="157.421708" y="246.290536" style="fill: #1f77b4; stroke: #1f77b4"/>
     <use xlink:href="#m11c30ad217" x="159.881212" y="246.620203" style="fill: #1f77b4; stroke: #1f77b4"/>
     <use xlink:href="#m11c30ad217" x="160.701047" y="250.049597" style="fill: #1f77b4; stroke: #1f77b4"/>
     <use xlink:href="#m11c30ad217" x="161.520882" y="246.988402" style="fill: #1f77b4; stroke: #1f77b4"/>
     <use xlink:href="#m11c30ad217" x="162.340716" y="245.832427" style="fill: #1f77b4; stroke: #1f77b4"/>
     <use xlink:href="#m11c30ad217" x="163.160551" y="243.593259" style="fill: #1f77b4; stroke: #1f77b4"/>
     <use xlink:href="#m11c30ad217" x="165.620055" y="238.622564" style="fill: #1f77b4; stroke: #1f77b4"/>
     <use xlink:href="#m11c30ad217" x="166.43989" y="241.619538" style="fill: #1f77b4; stroke: #1f77b4"/>
     <use xlink:href="#m11c30ad217" x="167.259725" y="243.366346" style="fill: #1f77b4; stroke: #1f77b4"/>
     <use xlink:href="#m11c30ad217" x="168.079559" y="244.393879" style="fill: #1f77b4; stroke: #1f77b4"/>
     <use xlink:href="#m11c30ad217" x="168.899394" y="239.607284" style="fill: #1f77b4; stroke: #1f77b4"/>
     <use xlink:href="#m11c30ad217" x="171.358898" y="237.590749" style="fill: #1f77b4; stroke: #1f77b4"/>
     <use xlink:href="#m11c30ad217" x="172.178733" y="240.073956" style="fill: #1f77b4; stroke: #1f77b4"/>
     <use xlink:href="#m11c30ad217" x="172.998567" y="238.729599" style="fill: #1f77b4; stroke: #1f77b4"/>
     <use xlink:href="#m11c30ad217" x="173.818402" y="240.043986" style="fill: #1f77b4; stroke: #1f77b4"/>
     <use xlink:href="#m11c30ad217" x="174.638237" y="241.062957" style="fill: #1f77b4; stroke: #1f77b4"/>
     <use xlink:href="#m11c30ad217" x="177.097741" y="238.438465" style="fill: #1f77b4; stroke: #1f77b4"/>
     <use xlink:href="#m11c30ad217" x="177.917576" y="237.325303" style="fill: #1f77b4; stroke: #1f77b4"/>
     <use xlink:href="#m11c30ad217" x="178.73741" y="233.193761" style="fill: #1f77b4; stroke: #1f77b4"/>
     <use xlink:href="#m11c30ad217" x="179.557245" y="226.771674" style="fill: #1f77b4; stroke: #1f77b4"/>
     <use xlink:href="#m11c30ad217" x="180.37708" y="228.54417" style="fill: #1f77b4; stroke: #1f77b4"/>
     <use xlink:href="#m11c30ad217" x="182.836584" y="228.920932" style="fill: #1f77b4; stroke: #1f77b4"/>
     <use xlink:href="#m11c30ad217" x="183.656419" y="231.010251" style="fill: #1f77b4; stroke: #1f77b4"/>
     <use xlink:href="#m11c30ad217" x="184.476253" y="231.65246" style="fill: #1f77b4; stroke: #1f77b4"/>
     <use xlink:href="#m11c30ad217" x="185.296088" y="199.790348" style="fill: #1f77b4; stroke: #1f77b4"/>
     <use xlink:href="#m11c30ad217" x="186.115923" y="195.654524" style="fill: #1f77b4; stroke: #1f77b4"/>
     <use xlink:href="#m11c30ad217" x="189.395262" y="190.666703" style="fill: #1f77b4; stroke: #1f77b4"/>
     <use xlink:href="#m11c30ad217" x="190.215096" y="200.415431" style="fill: #1f77b4; stroke: #1f77b4"/>
     <use xlink:href="#m11c30ad217" x="191.034931" y="192.126658" style="fill: #1f77b4; stroke: #1f77b4"/>
     <use xlink:href="#m11c30ad217" x="191.854766" y="194.023314" style="fill: #1f77b4; stroke: #1f77b4"/>
     <use xlink:href="#m11c30ad217" x="194.31427" y="194.691211" style="fill: #1f77b4; stroke: #1f77b4"/>
     <use xlink:href="#m11c30ad217" x="195.134105" y="196.90469" style="fill: #1f77b4; stroke: #1f77b4"/>
     <use xlink:href="#m11c30ad217" x="195.953939" y="201.95245" style="fill: #1f77b4; stroke: #1f77b4"/>
     <use xlink:href="#m11c30ad217" x="196.773774" y="197.521211" style="fill: #1f77b4; stroke: #1f77b4"/>
     <use xlink:href="#m11c30ad217" x="197.593609" y="196.408049" style="fill: #1f77b4; stroke: #1f77b4"/>
     <use xlink:href="#m11c30ad217" x="200.053113" y="193.359698" style="fill: #1f77b4; stroke: #1f77b4"/>
     <use xlink:href="#m11c30ad217" x="200.872948" y="186.766356" style="fill: #1f77b4; stroke: #1f77b4"/>
     <use xlink:href="#m11c30ad217" x="201.692782" y="178.310609" style="fill: #1f77b4; stroke: #1f77b4"/>
     <use xlink:href="#m11c30ad217" x="202.512617" y="179.783407" style="fill: #1f77b4; stroke: #1f77b4"/>
     <use xlink:href="#m11c30ad217" x="203.332452" y="179.616433" style="fill: #1f77b4; stroke: #1f77b4"/>
     <use xlink:href="#m11c30ad217" x="206.611791" y="174.838401" style="fill: #1f77b4; stroke: #1f77b4"/>
     <use xlink:href="#m11c30ad217" x="207.431625" y="178.105102" style="fill: #1f77b4; stroke: #1f77b4"/>
     <use xlink:href="#m11c30ad217" x="208.25146" y="178.19073" style="fill: #1f77b4; stroke: #1f77b4"/>
     <use xlink:href="#m11c30ad217" x="209.071295" y="181.684345" style="fill: #1f77b4; stroke: #1f77b4"/>
     <use xlink:href="#m11c30ad217" x="211.530799" y="188.436099" style="fill: #1f77b4; stroke: #1f77b4"/>
     <use xlink:href="#m11c30ad217" x="212.350634" y="183.110048" style="fill: #1f77b4; stroke: #1f77b4"/>
     <use xlink:href="#m11c30ad217" x="213.170468" y="186.359624" style="fill: #1f77b4; stroke: #1f77b4"/>
     <use xlink:href="#m11c30ad217" x="213.990303" y="187.622634" style="fill: #1f77b4; stroke: #1f77b4"/>
     <use xlink:href="#m11c30ad217" x="214.810138" y="181.286176" style="fill: #1f77b4; stroke: #1f77b4"/>
     <use xlink:href="#m11c30ad217" x="217.269642" y="180.810941" style="fill: #1f77b4; stroke: #1f77b4"/>
     <use xlink:href="#m11c30ad217" x="218.909311" y="181.221955" style="fill: #1f77b4; stroke: #1f77b4"/>
     <use xlink:href="#m11c30ad217" x="219.729146" y="182.138173" style="fill: #1f77b4; stroke: #1f77b4"/>
     <use xlink:href="#m11c30ad217" x="220.548981" y="180.425616" style="fill: #1f77b4; stroke: #1f77b4"/>
     <use xlink:href="#m11c30ad217" x="223.008485" y="181.808505" style="fill: #1f77b4; stroke: #1f77b4"/>
     <use xlink:href="#m11c30ad217" x="223.82832" y="180.845192" style="fill: #1f77b4; stroke: #1f77b4"/>
     <use xlink:href="#m11c30ad217" x="224.648154" y="174.43595" style="fill: #1f77b4; stroke: #1f77b4"/>
     <use xlink:href="#m11c30ad217" x="225.467989" y="165.552064" style="fill: #1f77b4; stroke: #1f77b4"/>
     <use xlink:href="#m11c30ad217" x="226.287824" y="167.72701" style="fill: #1f77b4; stroke: #1f77b4"/>
     <use xlink:href="#m11c30ad217" x="228.747328" y="163.47987" style="fill: #1f77b4; stroke: #1f77b4"/>
     <use xlink:href="#m11c30ad217" x="229.567163" y="159.057194" style="fill: #1f77b4; stroke: #1f77b4"/>
     <use xlink:href="#m11c30ad217" x="230.386997" y="160.842534" style="fill: #1f77b4; stroke: #1f77b4"/>
     <use xlink:href="#m11c30ad217" x="231.206832" y="167.508659" style="fill: #1f77b4; stroke: #1f77b4"/>
     <use xlink:href="#m11c30ad217" x="232.026667" y="172.693424" style="fill: #1f77b4; stroke: #1f77b4"/>
     <use xlink:href="#m11c30ad217" x="234.486171" y="171.396162" style="fill: #1f77b4; stroke: #1f77b4"/>
     <use xlink:href="#m11c30ad217" x="235.306006" y="166.827918" style="fill: #1f77b4; stroke: #1f77b4"/>
     <use xlink:href="#m11c30ad217" x="236.12584" y="167.799794" style="fill: #1f77b4; stroke: #1f77b4"/>
     <use xlink:href="#m11c30ad217" x="236.945675" y="165.881731" style="fill: #1f77b4; stroke: #1f77b4"/>
     <use xlink:href="#m11c30ad217" x="237.76551" y="162.242548" style="fill: #1f77b4; stroke: #1f77b4"/>
     <use xlink:href="#m11c30ad217" x="240.225014" y="162.332458" style="fill: #1f77b4; stroke: #1f77b4"/>
     <use xlink:href="#m11c30ad217" x="241.044848" y="163.282926" style="fill: #1f77b4; stroke: #1f77b4"/>
     <use xlink:href="#m11c30ad217" x="241.864683" y="172.86468" style="fill: #1f77b4; stroke: #1f77b4"/>
     <use xlink:href="#m11c30ad217" x="242.684518" y="171.811457" style="fill: #1f77b4; stroke: #1f77b4"/>
     <use xlink:href="#m11c30ad217" x="243.504353" y="171.105028" style="fill: #1f77b4; stroke: #1f77b4"/>
     <use xlink:href="#m11c30ad217" x="245.963857" y="167.951783" style="fill: #1f77b4; stroke: #1f77b4"/>
     <use xlink:href="#m11c30ad217" x="246.783691" y="171.17353" style="fill: #1f77b4; stroke: #1f77b4"/>
     <use xlink:href="#m11c30ad217" x="247.603526" y="180.207265" style="fill: #1f77b4; stroke: #1f77b4"/>
     <use xlink:href="#m11c30ad217" x="248.423361" y="180.917976" style="fill: #1f77b4; stroke: #1f77b4"/>
     <use xlink:href="#m11c30ad217" x="249.243196" y="187.481349" style="fill: #1f77b4; stroke: #1f77b4"/>
     <use xlink:href="#m11c30ad217" x="251.7027" y="175.073877" style="fill: #1f77b4; stroke: #1f77b4"/>
     <use xlink:href="#m11c30ad217" x="252.522534" y="174.273257" style="fill: #1f77b4; stroke: #1f77b4"/>
     <use xlink:href="#m11c30ad217" x="253.342369" y="176.217009" style="fill: #1f77b4; stroke: #1f77b4"/>
     <use xlink:href="#m11c30ad217" x="254.162204" y="176.827107" style="fill: #1f77b4; stroke: #1f77b4"/>
     <use xlink:href="#m11c30ad217" x="254.982039" y="177.017629" style="fill: #1f77b4; stroke: #1f77b4"/>
     <use xlink:href="#m11c30ad217" x="257.441543" y="161.313487" style="fill: #1f77b4; stroke: #1f77b4"/>
     <use xlink:href="#m11c30ad217" x="258.261377" y="166.875014" style="fill: #1f77b4; stroke: #1f77b4"/>
     <use xlink:href="#m11c30ad217" x="259.081212" y="160.675559" style="fill: #1f77b4; stroke: #1f77b4"/>
     <use xlink:href="#m11c30ad217" x="259.901047" y="160.474334" style="fill: #1f77b4; stroke: #1f77b4"/>
     <use xlink:href="#m11c30ad217" x="260.720882" y="165.376527" style="fill: #1f77b4; stroke: #1f77b4"/>
     <use xlink:href="#m11c30ad217" x="263.180386" y="161.87863" style="fill: #1f77b4; stroke: #1f77b4"/>
     <use xlink:href="#m11c30ad217" x="264.00022" y="153.534199" style="fill: #1f77b4; stroke: #1f77b4"/>
     <use xlink:href="#m11c30ad217" x="264.820055" y="151.479131" style="fill: #1f77b4; stroke: #1f77b4"/>
     <use xlink:href="#m11c30ad217" x="265.63989" y="151.089525" style="fill: #1f77b4; stroke: #1f77b4"/>
     <use xlink:href="#m11c30ad217" x="266.459725" y="154.711582" style="fill: #1f77b4; stroke: #1f77b4"/>
     <use xlink:href="#m11c30ad217" x="269.739063" y="154.544607" style="fill: #1f77b4; stroke: #1f77b4"/>
     <use xlink:href="#m11c30ad217" x="270.558898" y="160.911036" style="fill: #1f77b4; stroke: #1f77b4"/>
     <use xlink:href="#m11c30ad217" x="271.378733" y="164.421776" style="fill: #1f77b4; stroke: #1f77b4"/>
     <use xlink:href="#m11c30ad217" x="272.198567" y="167.286027" style="fill: #1f77b4; stroke: #1f77b4"/>
     <use xlink:href="#m11c30ad217" x="274.658072" y="168.972895" style="fill: #1f77b4; stroke: #1f77b4"/>
     <use xlink:href="#m11c30ad217" x="275.477906" y="170.291564" style="fill: #1f77b4; stroke: #1f77b4"/>
     <use xlink:href="#m11c30ad217" x="276.297741" y="167.658508" style="fill: #1f77b4; stroke: #1f77b4"/>
     <use xlink:href="#m11c30ad217" x="277.117576" y="167.247495" style="fill: #1f77b4; stroke: #1f77b4"/>
     <use xlink:href="#m11c30ad217" x="277.93741" y="174.444513" style="fill: #1f77b4; stroke: #1f77b4"/>
     <use xlink:href="#m11c30ad217" x="280.396915" y="174.161941" style="fill: #1f77b4; stroke: #1f77b4"/>
     <use xlink:href="#m11c30ad217" x="281.216749" y="176.071441" style="fill: #1f77b4; stroke: #1f77b4"/>
     <use xlink:href="#m11c30ad217" x="282.036584" y="181.555903" style="fill: #1f77b4; stroke: #1f77b4"/>
     <use xlink:href="#m11c30ad217" x="282.856419" y="186.787763" style="fill: #1f77b4; stroke: #1f77b4"/>
     <use xlink:href="#m11c30ad217" x="283.676253" y="184.248898" style="fill: #1f77b4; stroke: #1f77b4"/>
     <use xlink:href="#m11c30ad217" x="286.135758" y="181.628687" style="fill: #1f77b4; stroke: #1f77b4"/>
     <use xlink:href="#m11c30ad217" x="286.955592" y="182.9602" style="fill: #1f77b4; stroke: #1f77b4"/>
     <use xlink:href="#m11c30ad217" x="287.775427" y="180.575465" style="fill: #1f77b4; stroke: #1f77b4"/>
     <use xlink:href="#m11c30ad217" x="288.595262" y="177.916721" style="fill: #1f77b4; stroke: #1f77b4"/>
     <use xlink:href="#m11c30ad217" x="289.415096" y="176.161351" style="fill: #1f77b4; stroke: #1f77b4"/>
     <use xlink:href="#m11c30ad217" x="291.874601" y="170.668326" style="fill: #1f77b4; stroke: #1f77b4"/>
     <use xlink:href="#m11c30ad217" x="292.694435" y="176.084286" style="fill: #1f77b4; stroke: #1f77b4"/>
     <use xlink:href="#m11c30ad217" x="293.51427" y="173.840837" style="fill: #1f77b4; stroke: #1f77b4"/>
     <use xlink:href="#m11c30ad217" x="294.334105" y="171.070777" style="fill: #1f77b4; stroke: #1f77b4"/>
     <use xlink:href="#m11c30ad217" x="295.153939" y="166.472563" style="fill: #1f77b4; stroke: #1f77b4"/>
     <use xlink:href="#m11c30ad217" x="297.613444" y="168.566163" style="fill: #1f77b4; stroke: #1f77b4"/>
     <use xlink:href="#m11c30ad217" x="298.433278" y="166.318433" style="fill: #1f77b4; stroke: #1f77b4"/>
     <use xlink:href="#m11c30ad217" x="299.253113" y="162.002791" style="fill: #1f77b4; stroke: #1f77b4"/>
     <use xlink:href="#m11c30ad217" x="300.072948" y="161.407677" style="fill: #1f77b4; stroke: #1f77b4"/>
     <use xlink:href="#m11c30ad217" x="300.892782" y="167.761261" style="fill: #1f77b4; stroke: #1f77b4"/>
     <use xlink:href="#m11c30ad217" x="303.352287" y="165.04686" style="fill: #1f77b4; stroke: #1f77b4"/>
     <use xlink:href="#m11c30ad217" x="304.172121" y="174.28182" style="fill: #1f77b4; stroke: #1f77b4"/>
     <use xlink:href="#m11c30ad217" x="304.991956" y="181.740003" style="fill: #1f77b4; stroke: #1f77b4"/>
     <use xlink:href="#m11c30ad217" x="305.811791" y="182.146735" style="fill: #1f77b4; stroke: #1f77b4"/>
     <use xlink:href="#m11c30ad217" x="306.631625" y="185.203649" style="fill: #1f77b4; stroke: #1f77b4"/>
     <use xlink:href="#m11c30ad217" x="309.091129" y="178.4048" style="fill: #1f77b4; stroke: #1f77b4"/>
     <use xlink:href="#m11c30ad217" x="309.910964" y="175.459203" style="fill: #1f77b4; stroke: #1f77b4"/>
     <use xlink:href="#m11c30ad217" x="310.730799" y="183.525343" style="fill: #1f77b4; stroke: #1f77b4"/>
     <use xlink:href="#m11c30ad217" x="311.550634" y="189.746204" style="fill: #1f77b4; stroke: #1f77b4"/>
     <use xlink:href="#m11c30ad217" x="312.370468" y="189.001242" style="fill: #1f77b4; stroke: #1f77b4"/>
     <use xlink:href="#m11c30ad217" x="314.829972" y="186.171243" style="fill: #1f77b4; stroke: #1f77b4"/>
     <use xlink:href="#m11c30ad217" x="315.649807" y="187.802453" style="fill: #1f77b4; stroke: #1f77b4"/>
     <use xlink:href="#m11c30ad217" x="316.469642" y="181.187704" style="fill: #1f77b4; stroke: #1f77b4"/>
     <use xlink:href="#m11c30ad217" x="317.289477" y="176.131381" style="fill: #1f77b4; stroke: #1f77b4"/>
     <use xlink:href="#m11c30ad217" x="318.109311" y="169.713576" style="fill: #1f77b4; stroke: #1f77b4"/>
     <use xlink:href="#m11c30ad217" x="320.602975" y="166.519658" style="fill: #1f77b4; stroke: #1f77b4"/>
     <use xlink:href="#m11c30ad217" x="321.42281" y="165.646254" style="fill: #1f77b4; stroke: #1f77b4"/>
     <use xlink:href="#m11c30ad217" x="322.242645" y="162.996073" style="fill: #1f77b4; stroke: #1f77b4"/>
     <use xlink:href="#m11c30ad217" x="323.062479" y="161.38627" style="fill: #1f77b4; stroke: #1f77b4"/>
     <use xlink:href="#m11c30ad217" x="323.882314" y="155.456544" style="fill: #1f77b4; stroke: #1f77b4"/>
     <use xlink:href="#m11c30ad217" x="326.341818" y="154.236347" style="fill: #1f77b4; stroke: #1f77b4"/>
     <use xlink:href="#m11c30ad217" x="327.161653" y="149.800826" style="fill: #1f77b4; stroke: #1f77b4"/>
     <use xlink:href="#m11c30ad217" x="327.981488" y="153.088934" style="fill: #1f77b4; stroke: #1f77b4"/>
     <use xlink:href="#m11c30ad217" x="328.801322" y="150.554351" style="fill: #1f77b4; stroke: #1f77b4"/>
     <use xlink:href="#m11c30ad217" x="329.621157" y="151.333564" style="fill: #1f77b4; stroke: #1f77b4"/>
     <use xlink:href="#m11c30ad217" x="332.080661" y="146.576939" style="fill: #1f77b4; stroke: #1f77b4"/>
     <use xlink:href="#m11c30ad217" x="332.900496" y="148.567786" style="fill: #1f77b4; stroke: #1f77b4"/>
     <use xlink:href="#m11c30ad217" x="333.720331" y="153.825334" style="fill: #1f77b4; stroke: #1f77b4"/>
     <use xlink:href="#m11c30ad217" x="335.36" y="157.849841" style="fill: #1f77b4; stroke: #1f77b4"/>
     <use xlink:href="#m11c30ad217" x="337.819504" y="155.854713" style="fill: #1f77b4; stroke: #1f77b4"/>
     <use xlink:href="#m11c30ad217" x="338.639339" y="157.657179" style="fill: #1f77b4; stroke: #1f77b4"/>
     <use xlink:href="#m11c30ad217" x="339.459174" y="156.291415" style="fill: #1f77b4; stroke: #1f77b4"/>
     <use xlink:href="#m11c30ad217" x="340.279008" y="162.156921" style="fill: #1f77b4; stroke: #1f77b4"/>
     <use xlink:href="#m11c30ad217" x="341.098843" y="162.178328" style="fill: #1f77b4; stroke: #1f77b4"/>
     <use xlink:href="#m11c30ad217" x="343.558347" y="167.551473" style="fill: #1f77b4; stroke: #1f77b4"/>
     <use xlink:href="#m11c30ad217" x="344.378182" y="163.030324" style="fill: #1f77b4; stroke: #1f77b4"/>
     <use xlink:href="#m11c30ad217" x="345.198017" y="167.581443" style="fill: #1f77b4; stroke: #1f77b4"/>
     <use xlink:href="#m11c30ad217" x="346.017851" y="162.901883" style="fill: #1f77b4; stroke: #1f77b4"/>
     <use xlink:href="#m11c30ad217" x="346.837686" y="159.005817" style="fill: #1f77b4; stroke: #1f77b4"/>
     <use xlink:href="#m11c30ad217" x="349.29719" y="162.76916" style="fill: #1f77b4; stroke: #1f77b4"/>
     <use xlink:href="#m11c30ad217" x="350.117025" y="158.359327" style="fill: #1f77b4; stroke: #1f77b4"/>
     <use xlink:href="#m11c30ad217" x="350.93686" y="156.514047" style="fill: #1f77b4; stroke: #1f77b4"/>
     <use xlink:href="#m11c30ad217" x="351.756694" y="155.392323" style="fill: #1f77b4; stroke: #1f77b4"/>
     <use xlink:href="#m11c30ad217" x="352.576529" y="153.080372" style="fill: #1f77b4; stroke: #1f77b4"/>
     <use xlink:href="#m11c30ad217" x="355.036033" y="147.99836" style="fill: #1f77b4; stroke: #1f77b4"/>
     <use xlink:href="#m11c30ad217" x="355.855868" y="150.023458" style="fill: #1f77b4; stroke: #1f77b4"/>
     <use xlink:href="#m11c30ad217" x="356.675702" y="156.415575" style="fill: #1f77b4; stroke: #1f77b4"/>
     <use xlink:href="#m11c30ad217" x="357.495537" y="152.652233" style="fill: #1f77b4; stroke: #1f77b4"/>
     <use xlink:href="#m11c30ad217" x="358.315372" y="153.337255" style="fill: #1f77b4; stroke: #1f77b4"/>
     <use xlink:href="#m11c30ad217" x="361.594711" y="151.414911" style="fill: #1f77b4; stroke: #1f77b4"/>
     <use xlink:href="#m11c30ad217" x="362.414545" y="150.824079" style="fill: #1f77b4; stroke: #1f77b4"/>
     <use xlink:href="#m11c30ad217" x="363.23438" y="150.374533" style="fill: #1f77b4; stroke: #1f77b4"/>
     <use xlink:href="#m11c30ad217" x="364.054215" y="150.374533" style="fill: #1f77b4; stroke: #1f77b4"/>
     <use xlink:href="#m11c30ad217" x="367.333554" y="156.171536" style="fill: #1f77b4; stroke: #1f77b4"/>
     <use xlink:href="#m11c30ad217" x="368.153388" y="158.736089" style="fill: #1f77b4; stroke: #1f77b4"/>
     <use xlink:href="#m11c30ad217" x="368.973223" y="156.899372" style="fill: #1f77b4; stroke: #1f77b4"/>
     <use xlink:href="#m11c30ad217" x="369.793058" y="152.194124" style="fill: #1f77b4; stroke: #1f77b4"/>
     <use xlink:href="#m11c30ad217" x="372.252562" y="138.682054" style="fill: #1f77b4; stroke: #1f77b4"/>
     <use xlink:href="#m11c30ad217" x="373.072397" y="134.88446" style="fill: #1f77b4; stroke: #1f77b4"/>
     <use xlink:href="#m11c30ad217" x="373.892231" y="129.703977" style="fill: #1f77b4; stroke: #1f77b4"/>
     <use xlink:href="#m11c30ad217" x="374.712066" y="127.68316" style="fill: #1f77b4; stroke: #1f77b4"/>
     <use xlink:href="#m11c30ad217" x="375.531901" y="128.162676" style="fill: #1f77b4; stroke: #1f77b4"/>
     <use xlink:href="#m11c30ad217" x="378.81124" y="121.00419" style="fill: #1f77b4; stroke: #1f77b4"/>
     <use xlink:href="#m11c30ad217" x="379.631074" y="122.412768" style="fill: #1f77b4; stroke: #1f77b4"/>
     <use xlink:href="#m11c30ad217" x="380.450909" y="117.900182" style="fill: #1f77b4; stroke: #1f77b4"/>
     <use xlink:href="#m11c30ad217" x="381.270744" y="107.693345" style="fill: #1f77b4; stroke: #1f77b4"/>
     <use xlink:href="#m11c30ad217" x="383.730248" y="106.995479" style="fill: #1f77b4; stroke: #1f77b4"/>
     <use xlink:href="#m11c30ad217" x="384.550083" y="106.057854" style="fill: #1f77b4; stroke: #1f77b4"/>
     <use xlink:href="#m11c30ad217" x="385.369917" y="99.682863" style="fill: #1f77b4; stroke: #1f77b4"/>
     <use xlink:href="#m11c30ad217" x="386.189752" y="98.591108" style="fill: #1f77b4; stroke: #1f77b4"/>
     <use xlink:href="#m11c30ad217" x="387.009587" y="101.100003" style="fill: #1f77b4; stroke: #1f77b4"/>
     <use xlink:href="#m11c30ad217" x="389.469091" y="94.960488" style="fill: #1f77b4; stroke: #1f77b4"/>
     <use xlink:href="#m11c30ad217" x="390.288926" y="93.637539" style="fill: #1f77b4; stroke: #1f77b4"/>
     <use xlink:href="#m11c30ad217" x="391.10876" y="98.976433" style="fill: #1f77b4; stroke: #1f77b4"/>
     <use xlink:href="#m11c30ad217" x="391.928595" y="92.554347" style="fill: #1f77b4; stroke: #1f77b4"/>
     <use xlink:href="#m11c30ad217" x="392.74843" y="79.140749" style="fill: #1f77b4; stroke: #1f77b4"/>
     <use xlink:href="#m11c30ad217" x="395.207934" y="65.560176" style="fill: #1f77b4; stroke: #1f77b4"/>
     <use xlink:href="#m11c30ad217" x="396.027769" y="70.308239" style="fill: #1f77b4; stroke: #1f77b4"/>
     <use xlink:href="#m11c30ad217" x="396.847603" y="62.276349" style="fill: #1f77b4; stroke: #1f77b4"/>
     <use xlink:href="#m11c30ad217" x="397.667438" y="64.237226" style="fill: #1f77b4; stroke: #1f77b4"/>
     <use xlink:href="#m11c30ad217" x="398.487273" y="53.568" style="fill: #1f77b4; stroke: #1f77b4"/>
    </g>
   </g>
   <g id="patch_3">
    <path d="M 57.6 307.584 
L 57.6 41.472 
" style="fill: none; stroke: #000000; stroke-width: 0.8; stroke-linejoin: miter; stroke-linecap: square"/>
   </g>
   <g id="patch_4">
    <path d="M 414.72 307.584 
L 414.72 41.472 
" style="fill: none; stroke: #000000; stroke-width: 0.8; stroke-linejoin: miter; stroke-linecap: square"/>
   </g>
   <g id="patch_5">
    <path d="M 57.6 307.584 
L 414.72 307.584 
" style="fill: none; stroke: #000000; stroke-width: 0.8; stroke-linejoin: miter; stroke-linecap: square"/>
   </g>
   <g id="patch_6">
    <path d="M 57.6 41.472 
L 414.72 41.472 
" style="fill: none; stroke: #000000; stroke-width: 0.8; stroke-linejoin: miter; stroke-linecap: square"/>
   </g>
   <g id="text_17">
    <!-- NVDA Stock Prices -->
    <g transform="translate(180.765 35.472) scale(0.12 -0.12)">
     <defs>
      <path id="DejaVuSans-4e" d="M 628 4666 
L 1478 4666 
L 3547 763 
L 3547 4666 
L 4159 4666 
L 4159 0 
L 3309 0 
L 1241 3903 
L 1241 0 
L 628 0 
L 628 4666 
z
" transform="scale(0.015625)"/>
      <path id="DejaVuSans-56" d="M 1831 0 
L 50 4666 
L 709 4666 
L 2188 738 
L 3669 4666 
L 4325 4666 
L 2547 0 
L 1831 0 
z
" transform="scale(0.015625)"/>
      <path id="DejaVuSans-44" d="M 1259 4147 
L 1259 519 
L 2022 519 
Q 2988 519 3436 956 
Q 3884 1394 3884 2338 
Q 3884 3275 3436 3711 
Q 2988 4147 2022 4147 
L 1259 4147 
z
M 628 4666 
L 1925 4666 
Q 3281 4666 3915 4102 
Q 4550 3538 4550 2338 
Q 4550 1131 3912 565 
Q 3275 0 1925 0 
L 628 0 
L 628 4666 
z
" transform="scale(0.015625)"/>
      <path id="DejaVuSans-41" d="M 2188 4044 
L 1331 1722 
L 3047 1722 
L 2188 4044 
z
M 1831 4666 
L 2547 4666 
L 4325 0 
L 3669 0 
L 3244 1197 
L 1141 1197 
L 716 0 
L 50 0 
L 1831 4666 
z
" transform="scale(0.015625)"/>
      <path id="DejaVuSans-53" d="M 3425 4513 
L 3425 3897 
Q 3066 4069 2747 4153 
Q 2428 4238 2131 4238 
Q 1616 4238 1336 4038 
Q 1056 3838 1056 3469 
Q 1056 3159 1242 3001 
Q 1428 2844 1947 2747 
L 2328 2669 
Q 3034 2534 3370 2195 
Q 3706 1856 3706 1288 
Q 3706 609 3251 259 
Q 2797 -91 1919 -91 
Q 1588 -91 1214 -16 
Q 841 59 441 206 
L 441 856 
Q 825 641 1194 531 
Q 1563 422 1919 422 
Q 2459 422 2753 634 
Q 3047 847 3047 1241 
Q 3047 1584 2836 1778 
Q 2625 1972 2144 2069 
L 1759 2144 
Q 1053 2284 737 2584 
Q 422 2884 422 3419 
Q 422 4038 858 4394 
Q 1294 4750 2059 4750 
Q 2388 4750 2728 4690 
Q 3069 4631 3425 4513 
z
" transform="scale(0.015625)"/>
      <path id="DejaVuSans-6b" d="M 581 4863 
L 1159 4863 
L 1159 1991 
L 2875 3500 
L 3609 3500 
L 1753 1863 
L 3688 0 
L 2938 0 
L 1159 1709 
L 1159 0 
L 581 0 
L 581 4863 
z
" transform="scale(0.015625)"/>
     </defs>
     <use xlink:href="#DejaVuSans-4e"/>
     <use xlink:href="#DejaVuSans-56" x="74.804688"/>
     <use xlink:href="#DejaVuSans-44" x="143.212891"/>
     <use xlink:href="#DejaVuSans-41" x="218.464844"/>
     <use xlink:href="#DejaVuSans-20" x="286.873047"/>
     <use xlink:href="#DejaVuSans-53" x="318.660156"/>
     <use xlink:href="#DejaVuSans-74" x="382.136719"/>
     <use xlink:href="#DejaVuSans-6f" x="421.345703"/>
     <use xlink:href="#DejaVuSans-63" x="482.527344"/>
     <use xlink:href="#DejaVuSans-6b" x="537.507812"/>
     <use xlink:href="#DejaVuSans-20" x="595.417969"/>
     <use xlink:href="#DejaVuSans-50" x="627.205078"/>
     <use xlink:href="#DejaVuSans-72" x="685.757812"/>
     <use xlink:href="#DejaVuSans-69" x="726.871094"/>
     <use xlink:href="#DejaVuSans-63" x="754.654297"/>
     <use xlink:href="#DejaVuSans-65" x="809.634766"/>
     <use xlink:href="#DejaVuSans-73" x="871.158203"/>
    </g>
   </g>
  </g>
 </g>
 <defs>
  <clipPath id="p43ea3db623">
   <rect x="57.6" y="41.472" width="357.12" height="266.112"/>
  </clipPath>
 </defs>
</svg>
